<svg xmlns="http://www.w3.org/2000/svg" viewBox="0 0 36 34">
    <defs>
        <filter id="3x5rm6umja">
            <feColorMatrix in="SourceGraphic" values="0 0 0 0 0.015686 0 0 0 0 0.505882 0 0 0 0 0.627451 0 0 0 1.000000 0"/>
        </filter>
    </defs>
    <g fill="none" fill-rule="evenodd">
        <g>
            <g>
                <g>
                    <path d="M0 0L36 0 36 34 0 34z" transform="translate(-937.000000, -126.000000) translate(751.000000, 54.000000) translate(186.000000, 72.000000)"/>
                    <g filter="url(#3x5rm6umja)" transform="translate(-937.000000, -126.000000) translate(751.000000, 54.000000) translate(186.000000, 72.000000)">
                        <g fill="#545454">
                            <path d="M2 15v4c0 .464.431.929.893.993L3 20h5v2H3C1.36 22 .093 20.698.005 19.17L0 19v-4h2zm22 0v4c0 1.543-1.209 2.9-2.82 2.995L21 22h-5v-2h5c.464 0 .929-.431.993-.893L22 19v-4h2zM8 0v2H3c-.464 0-.929.431-.993.893L2 3v4H0V3C0 1.457 1.209.1 2.82.005L3 0h5zm13 0c1.64 0 2.907 1.302 2.995 2.83L24 3v3.999h-2V3c0-.464-.431-.929-.893-.993L21 2h-5V0h5z" transform="translate(6.000000, 6.000000)"/>
                            <path d="M6.3 4c1.27 0 2.3 1.03 2.3 2.3 0 1.27-1.03 2.3-2.3 2.3C5.03 8.6 4 7.57 4 6.3 4 5.03 5.03 4 6.3 4M4 17.8h16V11l-2.7-2.8c-.3-.3-.7-.3-1 0L9.5 15l-2.3-2.3c-.3-.3-.7-.3-1 0L4 15v2.8z" transform="translate(6.000000, 6.000000)"/>
                        </g>
                    </g>
                </g>
            </g>
        </g>
    </g>
</svg>
