<svg width="36" height="36" viewBox="0 0 36 36" xmlns="http://www.w3.org/2000/svg" xmlns:xlink="http://www.w3.org/1999/xlink">
    <defs>
        <path d="M0 0h36v36H0V0z" id="5v6qox972a"/>
    </defs>
    <g fill="none" xlink:href="#5v6qox972a">
        <circle fill="#17A62F" cx="18" cy="18" r="18"/>
        <path d="M18 3c8.3 0 15 6.7 15 15s-6.7 15-15 15S3 26.3 3 18 9.7 3 18 3zm0 4C11.9 7 7 11.9 7 18s4.9 11 11 11 11-4.9 11-11S24.1 7 18 7zm4.5 5c.2-.2.3-.2.5 0l3.5 3.6c.1.1.1.3 0 .4l-9.6 9.6c-.1.1-.3.1-.4 0l-7.3-7.3c-.1-.1-.1-.3 0-.4l3.6-3.6c.1-.1.3-.1.4 0l3.5 3.5 5.8-5.8z" fill="#E8FDED"/>
    </g>
</svg>
