<svg width="36" height="36" viewBox="0 0 36 36" xmlns="http://www.w3.org/2000/svg" xmlns:xlink="http://www.w3.org/1999/xlink">
    <defs>
        <path d="M0 0h36v36H0V0z" id="9183gcf4ca"/>
    </defs>
    <g fill="none" xlink:href="#9183gcf4ca">
        <circle fill="#DA0006" cx="18" cy="18" r="18"/>
        <path d="M18 3c8.3 0 15 6.7 15 15s-6.7 15-15 15S3 26.3 3 18 9.7 3 18 3zm0 4C11.9 7 7 11.9 7 18s4.9 11 11 11 11-4.9 11-11S24.1 7 18 7zm3.2 4c.1-.1.3-.1.4 0l3.5 3.4c.1.1.1.3 0 .4L21.9 18l3.1 3.2c.1.1.1.3 0 .4L21.6 25c-.1.1-.3.1-.4 0L18 21.8 14.8 25c-.1.1-.3.1-.4 0L11 21.6c-.1-.1-.1-.3 0-.4l3.2-3.2-3.2-3.2c-.1-.1-.1-.3 0-.4l3.4-3.4c.1-.1.3-.1.4 0l3.2 3.1 3.2-3.1z" fill="#FEE5E4"/>
    </g>
</svg>
