<svg width="24" height="24" viewBox="0 0 24 24" xmlns="http://www.w3.org/2000/svg">
    <g fill="none" fill-rule="evenodd">
        <path d="M0 24V0h24v24z"/>
        <path d="M3.2 19.2c0-.25.06-.495.172-.718L10.59 4.096a1.6 1.6 0 0 1 2.86.003l7.185 14.386a1.6 1.6 0 0 1-1.431 2.315H4.8c-.883 0-1.6-.717-1.6-1.6z" fill="#333" fill-rule="nonzero"/>
        <path d="M4.305 19.2c0 .24.171.445.407.488l.089.008h14.404a.496.496 0 0 0 .476-.634l-.033-.084-7.184-14.385a.496.496 0 0 0-.84-.077l-.047.077-7.22 14.384a.496.496 0 0 0-.052.223z" fill="#FFF" fill-rule="nonzero"/>
    </g>
</svg>
