<svg width="20" height="20" viewBox="0 0 20 20" xmlns="http://www.w3.org/2000/svg" xmlns:xlink="http://www.w3.org/1999/xlink">
    <defs>
        <path d="M0 0h20v20H0V0z" id="bikp6akj9a"/>
    </defs>
    <g fill="none" xlink:href="#bikp6akj9a">
        <path d="M0 0h20v20H0z"/>
        <path d="M15.833 15.833H6.667c-.459 0-.851-.163-1.177-.49A1.605 1.605 0 0 1 5 14.168V2.5c0-.458.163-.85.49-1.177.326-.326.718-.49 1.177-.49H12.5l5 5v8.334c0 .458-.163.85-.49 1.177-.326.326-.718.49-1.177.49zm-4.166-9.166V2.5h-5v11.667h9.166v-7.5h-4.166zm-8.334 12.5c-.458 0-.85-.164-1.177-.49a1.605 1.605 0 0 1-.49-1.177V5.833h1.667V17.5H12.5v1.667H3.333z" fill="#0481A0"/>
    </g>
</svg>
