<svg width="45" height="45" viewBox="0 0 45 45" xmlns="http://www.w3.org/2000/svg">
    <g fill="none" fill-rule="evenodd">
        <path d="M22.5 5c2.42 0 4.696.46 6.825 1.378 2.13.919 3.981 2.166 5.556 3.74 1.575 1.576 2.822 3.428 3.74 5.557.92 2.13 1.379 4.404 1.379 6.825 0 2.392-.46 4.652-1.378 6.781-.919 2.13-2.166 3.989-3.74 5.578-1.576 1.59-3.428 2.844-5.557 3.763C27.195 39.54 24.921 40 22.5 40c-2.392 0-4.652-.46-6.781-1.378a17.75 17.75 0 0 1-5.578-3.763 17.75 17.75 0 0 1-3.763-5.578C5.46 27.152 5 24.891 5 22.5c0-2.42.46-4.696 1.378-6.825.919-2.13 2.173-3.981 3.763-5.556 1.59-1.575 3.449-2.822 5.578-3.74C17.848 5.458 20.109 5 22.5 5zm-2.188 10.938h-3.28v13.124h3.28V15.938zm7.657 0h-3.282v13.124h3.282V15.938z" fill="#313131" fill-rule="nonzero"/>
    </g>
</svg>
