<svg width="45" height="45" viewBox="0 0 45 45" xmlns="http://www.w3.org/2000/svg">
    <g fill="none" fill-rule="evenodd">
        <path d="M22.522 5c2.415 0 4.685.46 6.81 1.378 2.124.919 3.974 2.166 5.55 3.74 1.574 1.576 2.821 3.428 3.74 5.557.919 2.13 1.378 4.4 1.378 6.813 0 2.413-.46 4.681-1.378 6.803-.919 2.123-2.166 3.976-3.74 5.56-1.576 1.585-3.428 2.839-5.557 3.763-2.13.924-4.4 1.386-6.813 1.386-2.413 0-4.681-.46-6.803-1.378a17.783 17.783 0 0 1-5.568-3.763 17.772 17.772 0 0 1-3.763-5.57C5.46 27.163 5 24.893 5 22.478c0-2.416.46-4.686 1.378-6.811.919-2.124 2.173-3.974 3.763-5.55 1.59-1.574 3.446-2.821 5.57-3.74C17.837 5.46 20.107 5 22.522 5zm6.54 10.938H15.938v13.124h13.126V15.938z" fill="#313131" fill-rule="nonzero"/>
    </g>
</svg>
