<svg width="45" height="45" viewBox="0 0 45 45" xmlns="http://www.w3.org/2000/svg">
    <g fill="none" fill-rule="evenodd">
        <path d="M37 5a3 3 0 0 1 3 3v29a3 3 0 0 1-3 3H8a3 3 0 0 1-3-3V8a3 3 0 0 1 3-3h29zM22.865 7.917H10.469c-.602 0-1.117.214-1.545.642a2.106 2.106 0 0 0-.643 1.545v24.792c0 .601.214 1.116.643 1.545.428.428.943.642 1.545.642h17.5c.601 0 1.116-.214 1.545-.642.428-.429.642-.944.642-1.545v-4.01H27.97v4.01h-17.5V10.104h12.396V7.917zm1.458 20.78H14.115v2.188h10.208v-2.187zm-.73-12.03h-2.187c0 1.92.632 3.597 1.896 5.03 1.264 1.435 2.82 2.286 4.667 2.553v3.719h2.187V24.25c1.872-.267 3.433-1.118 4.685-2.552 1.252-1.434 1.878-3.111 1.878-5.031H34.53c0 1.51-.528 2.8-1.586 3.867-1.057 1.068-2.353 1.601-3.888 1.601-1.509 0-2.797-.534-3.863-1.604-1.067-1.07-1.6-2.357-1.6-3.864zm-2.187 7.656h-7.291v2.187h7.291v-2.187zM29.063 8.28c-.702 0-1.303.25-1.803.748s-.75 1.1-.75 1.804v5.834c0 .705.25 1.306.748 1.804a2.44 2.44 0 0 0 1.789.748c.715 0 1.322-.25 1.82-.748s.748-1.1.748-1.804v-5.834c0-.705-.25-1.306-.748-1.804a2.459 2.459 0 0 0-1.805-.748z" fill="#313131"/>
    </g>
</svg>
