<svg width="24" height="24" viewBox="0 0 24 24" xmlns="http://www.w3.org/2000/svg" xmlns:xlink="http://www.w3.org/1999/xlink">
    <defs>
        <path d="M0 0h24v24H0V0z" id="dubx04y27a"/>
    </defs>
    <g fill="none" xlink:href="#dubx04y27a">
        <path d="M0 0h24v24H0z"/>
        <path d="M12 16c-1.111 0-2.056-.389-2.833-1.167C8.389 14.056 8 13.111 8 12c0-1.111.389-2.056 1.167-2.833C9.944 8.389 10.889 8 12 8c1.111 0 2.056.389 2.833 1.167C15.611 9.944 16 10.889 16 12c0 1.111-.389 2.056-1.167 2.833C14.056 15.611 13.111 16 12 16zm-7 5c-.55 0-1.02-.196-1.413-.587A1.926 1.926 0 0 1 3 19v-4h2v4h4v2H5zm10 0v-2h4v-4h2v4c0 .55-.196 1.02-.587 1.413A1.926 1.926 0 0 1 19 21h-4zM3 9V5c0-.55.196-1.02.587-1.413A1.926 1.926 0 0 1 5 3h4v2H5v4H3zm16 0V5h-4V3h4c.55 0 1.02.196 1.413.587C20.803 3.98 21 4.45 21 5v4h-2z" fill="currentColor"/>
    </g>
</svg>
